<?xml version="1.0" encoding="UTF-8" standalone="no"?>
<!-- Generator: Adobe Illustrator 19.0.0, SVG Export Plug-In . SVG Version: 6.00 Build 0)  -->

<svg
   xmlns:dc="http://purl.org/dc/elements/1.1/"
   xmlns:cc="http://creativecommons.org/ns#"
   xmlns:rdf="http://www.w3.org/1999/02/22-rdf-syntax-ns#"
   xmlns:svg="http://www.w3.org/2000/svg"
   xmlns="http://www.w3.org/2000/svg"
   xmlns:sodipodi="http://sodipodi.sourceforge.net/DTD/sodipodi-0.dtd"
   xmlns:inkscape="http://www.inkscape.org/namespaces/inkscape"
   version="1.1"
   id="Layer_1"
   x="0px"
   y="0px"
   viewBox="0 0 300 300"
   style="enable-background:new 0 0 300 300;"
   xml:space="preserve"
   sodipodi:docname="attachment.svg"
   inkscape:version="0.92.3 (2405546, 2018-03-11)"><metadata
   id="metadata43"><rdf:RDF><cc:Work
       rdf:about=""><dc:format>image/svg+xml</dc:format><dc:type
         rdf:resource="http://purl.org/dc/dcmitype/StillImage" /></cc:Work></rdf:RDF></metadata><defs
   id="defs41" /><sodipodi:namedview
   pagecolor="#ffffff"
   bordercolor="#666666"
   borderopacity="1"
   objecttolerance="10"
   gridtolerance="10"
   guidetolerance="10"
   inkscape:pageopacity="0"
   inkscape:pageshadow="2"
   inkscape:window-width="1920"
   inkscape:window-height="1028"
   id="namedview39"
   showgrid="false"
   inkscape:zoom="0.78666667"
   inkscape:cx="150"
   inkscape:cy="150"
   inkscape:window-x="-8"
   inkscape:window-y="-8"
   inkscape:window-maximized="1"
   inkscape:current-layer="g4" />
<g
   id="g6">
	<g
   id="g4">
		<path
   d="m 221.999,133.598 -98.569,98.562 0.005,0.005 c -0.034,0.034 -0.067,0.057 -0.101,0.091 l -0.604,0.604 -0.031,-0.034 c -5.561,5.179 -12.766,7.763 -20.225,7.763 -8.896,0 -18.124,-3.628 -25.264,-10.769 -6.349,-6.344 -10.156,-14.54 -10.719,-23.078 -0.558,-8.445 2.116,-16.236 7.485,-22.134 l -0.054,-0.054 97.41,-97.41 c 8.227,-8.229 22.209,-7.623 31.177,1.343 4.204,4.204 6.733,9.656 7.109,15.346 0.399,5.996 -1.707,11.765 -5.776,15.829 l -79.296,79.304 -11.005,-11.002 79.301,-79.307 c 1.162,-1.162 1.32,-2.703 1.248,-3.787 -0.127,-1.898 -1.071,-3.859 -2.588,-5.377 -2.85,-2.85 -7.049,-3.462 -9.168,-1.341 l -96.455,96.453 0.003,0.003 c -2.783,2.78 -4.155,6.725 -3.864,11.108 0.316,4.77 2.516,9.423 6.196,13.103 7.306,7.304 18.14,8.364 24.18,2.376 l 98.608,-98.6 c 4.593,-4.596 6.865,-11.056 6.393,-18.186 C 216.897,96.89 213.453,89.584 207.703,83.834 196.104,72.238 178.72,70.757 168.942,80.53 L 87.363,162.106 76.358,151.104 157.937,69.525 c 15.842,-15.839 43.103,-14.361 60.768,3.302 8.421,8.416 13.468,19.265 14.218,30.55 0.771,11.672 -3.107,22.404 -10.924,30.221 z"
   id="path2"
   inkscape:connector-curvature="0"
   sodipodi:nodetypes="cccsccsccccccccccccccccccccccccccccc" />
	</g>
</g>
<g
   id="g8">
</g>
<g
   id="g10">
</g>
<g
   id="g12">
</g>
<g
   id="g14">
</g>
<g
   id="g16">
</g>
<g
   id="g18">
</g>
<g
   id="g20">
</g>
<g
   id="g22">
</g>
<g
   id="g24">
</g>
<g
   id="g26">
</g>
<g
   id="g28">
</g>
<g
   id="g30">
</g>
<g
   id="g32">
</g>
<g
   id="g34">
</g>
<g
   id="g36">
</g>
</svg>