<?xml version="1.0" encoding="UTF-8" standalone="no"?>
<!-- Generator: Adobe Illustrator 19.0.0, SVG Export Plug-In . SVG Version: 6.00 Build 0)  -->

<svg
   xmlns:dc="http://purl.org/dc/elements/1.1/"
   xmlns:cc="http://creativecommons.org/ns#"
   xmlns:rdf="http://www.w3.org/1999/02/22-rdf-syntax-ns#"
   xmlns:svg="http://www.w3.org/2000/svg"
   xmlns="http://www.w3.org/2000/svg"
   xmlns:sodipodi="http://sodipodi.sourceforge.net/DTD/sodipodi-0.dtd"
   xmlns:inkscape="http://www.inkscape.org/namespaces/inkscape"
   version="1.1"
   id="Layer_1"
   x="0px"
   y="0px"
   viewBox="0 0 300 300"
   style="enable-background:new 0 0 300 300;"
   xml:space="preserve"
   sodipodi:docname="eject.svg"
   inkscape:version="0.92.3 (2405546, 2018-03-11)"><metadata
   id="metadata43"><rdf:RDF><cc:Work
       rdf:about=""><dc:format>image/svg+xml</dc:format><dc:type
         rdf:resource="http://purl.org/dc/dcmitype/StillImage" /></cc:Work></rdf:RDF></metadata><defs
   id="defs41" /><sodipodi:namedview
   pagecolor="#ffffff"
   bordercolor="#666666"
   borderopacity="1"
   objecttolerance="10"
   gridtolerance="10"
   guidetolerance="10"
   inkscape:pageopacity="0"
   inkscape:pageshadow="2"
   inkscape:window-width="732"
   inkscape:window-height="480"
   id="namedview39"
   showgrid="false"
   inkscape:zoom="0.78666667"
   inkscape:cx="150"
   inkscape:cy="150"
   inkscape:window-x="0"
   inkscape:window-y="0"
   inkscape:window-maximized="0"
   inkscape:current-layer="Layer_1" />
<g
   id="g6">
	<g
   id="g4">
		<path
   d="M 149.48242 82.082031 C 145.87942 82.082031 142.44423 83.471063 139.99023 85.914062 L 79.53125 146.13867 C 79.38025 146.28667 79.238703 146.43684 79.095703 146.58984 C 78.156703 147.62484 77.433734 148.76403 76.927734 149.95703 C 76.426734 151.14503 76.120781 152.41505 76.050781 153.74805 C 76.039781 153.95105 76.035156 154.14956 76.035156 154.35156 L 76.035156 154.50391 C 76.059156 156.15091 76.437375 157.72444 77.109375 159.14844 C 77.781375 160.58244 78.763734 161.91178 80.052734 163.05078 L 80.0625 163.06055 C 80.2465 163.22355 80.436906 163.37825 80.628906 163.53125 C 80.633906 163.53125 80.633672 163.53711 80.638672 163.53711 C 81.774672 164.42911 83.034422 165.10612 84.357422 165.57812 C 85.605422 166.02412 86.947703 166.29328 88.345703 166.36328 L 88.359375 166.36328 C 88.583375 166.36828 88.728062 166.36805 89.039062 166.37305 L 209.92188 166.37305 L 209.95703 166.37305 L 210.00586 166.37305 C 217.16686 166.37305 222.97461 160.99247 222.97461 154.35547 C 222.97461 150.85647 221.36683 147.71072 218.79883 145.51172 L 158.97656 85.914062 C 156.52256 83.469063 153.08542 82.082031 149.48242 82.082031 z M 90.736328 184.95898 C 82.618328 184.95898 76.037109 191.53916 76.037109 199.66016 C 76.037109 207.77616 82.618328 214.35547 90.736328 214.35547 L 208.27539 214.35547 C 216.39339 214.35547 222.97466 207.77316 222.97266 199.66016 C 222.97266 191.53916 216.39144 184.95898 208.27344 184.95898 L 90.736328 184.95898 z "
   id="path2" />
	</g>
</g>
<g
   id="g8">
</g>
<g
   id="g10">
</g>
<g
   id="g12">
</g>
<g
   id="g14">
</g>
<g
   id="g16">
</g>
<g
   id="g18">
</g>
<g
   id="g20">
</g>
<g
   id="g22">
</g>
<g
   id="g24">
</g>
<g
   id="g26">
</g>
<g
   id="g28">
</g>
<g
   id="g30">
</g>
<g
   id="g32">
</g>
<g
   id="g34">
</g>
<g
   id="g36">
</g>
</svg>