<?xml version="1.0" encoding="UTF-8" standalone="no"?>
<!-- Generator: Adobe Illustrator 16.0.0, SVG Export Plug-In . SVG Version: 6.00 Build 0)  -->

<svg
   xmlns:dc="http://purl.org/dc/elements/1.1/"
   xmlns:cc="http://creativecommons.org/ns#"
   xmlns:rdf="http://www.w3.org/1999/02/22-rdf-syntax-ns#"
   xmlns:svg="http://www.w3.org/2000/svg"
   xmlns="http://www.w3.org/2000/svg"
   xmlns:sodipodi="http://sodipodi.sourceforge.net/DTD/sodipodi-0.dtd"
   xmlns:inkscape="http://www.inkscape.org/namespaces/inkscape"
   version="1.1"
   id="Capa_1"
   x="0px"
   y="0px"
   width="612px"
   height="612px"
   viewBox="0 0 612 612"
   style="enable-background:new 0 0 612 612;"
   xml:space="preserve"
   sodipodi:docname="eye.svg"
   inkscape:version="0.92.3 (2405546, 2018-03-11)"><metadata
   id="metadata45"><rdf:RDF><cc:Work
       rdf:about=""><dc:format>image/svg+xml</dc:format><dc:type
         rdf:resource="http://purl.org/dc/dcmitype/StillImage" /></cc:Work></rdf:RDF></metadata><defs
   id="defs43" /><sodipodi:namedview
   pagecolor="#ffffff"
   bordercolor="#666666"
   borderopacity="1"
   objecttolerance="10"
   gridtolerance="10"
   guidetolerance="10"
   inkscape:pageopacity="0"
   inkscape:pageshadow="2"
   inkscape:window-width="1920"
   inkscape:window-height="1028"
   id="namedview41"
   showgrid="false"
   inkscape:zoom="3.0849673"
   inkscape:cx="96.384417"
   inkscape:cy="559.07517"
   inkscape:window-x="-8"
   inkscape:window-y="-8"
   inkscape:window-maximized="1"
   inkscape:current-layer="Capa_1" />
<g
   id="g8">
	<g
   id="g6">
		<path
   d="m 30.510649,-0.22951586 c -1.5954,0 -3.36516,0.0844 -5.25196,0.43184 -3.166,0.5835 -6.40788,1.70933996 -9.67168,3.38983996 -4.4806,2.308 -8.6802805,5.4789496 -12.6630805,9.4064499 -0.77,0.7587 -1.43515,1.45714 -2.02714995,2.16054 -1.3685,1.6238 -1.3671,3.75939 0,5.38379 1.62449995,1.9316 3.79405995,3.94822 6.51405995,6.11582 5.7888005,4.6104 11.4613805,7.53874 17.0175805,8.74414 1.9556,0.4184 3.98843,0.59551 6.08223,0.59551 2.0272,0 4.02612,-0.17711 5.98242,-0.59551 5.6214,-1.2125 11.306,-4.11974 17.0834,-8.74414 2.8973,-2.3193 5.00964,-4.38932 6.44824,-6.11582 1.387,-1.6641 1.4025,-3.73239 0,-5.38379 -0.6587,-0.7757 -1.35695,-1.49974 -2.02695,-2.16054 -3.8843,-3.8268003 -8.05368,-7.0240499 -12.66328,-9.4064499 -3.3015,-1.706 -6.54117,-2.82973996 -9.67247,-3.38983996 -1.8883,-0.3375 -3.62256,-0.43184 -5.15136,-0.43184 z m 0,3.68886996 c 1.4954,0 2.99233,0.12613 4.55293,0.39844 2.6271,0.45879 5.51028,1.511 8.64218,3.0916 4.0473,2.0420996 7.94362,4.8853999 11.69942,8.6413999 0.8637,0.8644 1.47413,1.51883 1.82793,1.96133 0.1788,0.2234 0.166,0.43185 0,0.59785 -1.4628,1.7953 -3.48341,3.65529 -5.98281,5.65059 -5.2449,4.1877 -10.39719,6.9084 -15.52149,7.9789 -1.889,0.39 -3.62276,0.53184 -5.21816,0.53184 h -0.1 c -1.6287,0 -3.32826,-0.14884 -5.15196,-0.53184 -5.057,-1.0777 -10.25678,-3.7324 -15.5882805,-7.9789 -2.5129,-2.0018 -4.48682,-3.88869 -5.91562,-5.65059 -0.2326,-0.166 -0.2326,-0.36525 0,-0.59785 0.166,-0.2326 0.45657,-0.57356 0.86367,-0.99766 0.424,-0.4403 0.73166,-0.76447 0.89766,-0.96367 3.8552,-3.7893 7.7940105,-6.6468003 11.7662105,-8.6413999 3.1745,-1.5947 6.0504,-2.6491 8.6414,-3.0916 1.4976,-0.2552 3.02492,-0.39844 4.58692,-0.39844 z m 0,2.72578 c -3.2241,0 -6.01628,1.12954 -8.30938,3.4234396 -2.2931,2.2931003 -3.42344,5.0519903 -3.42344,8.2753903 0,3.2241 1.12174,5.95837 3.42344,8.24297 2.2853,2.2689 5.08528,3.39003 8.30938,3.39003 3.2234,0 5.94897,-1.12953 8.20957,-3.39003 2.2931,-2.2932 3.42344,-5.01887 3.42344,-8.24297 0,-3.2234 -1.13894,-5.97379 -3.42344,-8.2753903 -2.2691,-2.2852996 -4.98617,-3.4234396 -8.20957,-3.4234396 z m 0,3.6892596 c 2.2265,0 4.0794,0.8054603 5.6166,2.3597603 1.5543,1.5706 2.32715,3.42331 2.32715,5.64981 0,2.1939 -0.76505,4.08848 -2.32715,5.65058 -1.562,1.5621 -3.4234,2.32637 -5.6166,2.32637 -2.2271,0 -4.12179,-0.79767 -5.68379,-2.35977 -1.5621,-1.5619 -2.35977,-3.45668 -2.35977,-5.61718 0,-2.2265 0.79767,-4.08761 2.35977,-5.64981 1.5621,-1.5621 3.45669,-2.3597603 5.68379,-2.3597603 z"
   id="path2"
   inkscape:connector-curvature="0"
   style="stroke-width:0.1"
   sodipodi:nodetypes="scccccccscccccccsscccccccssccccccccsscscscscsscscscscs" />
		
	</g>
</g>
<g
   id="g10">
</g>
<g
   id="g12">
</g>
<g
   id="g14">
</g>
<g
   id="g16">
</g>
<g
   id="g18">
</g>
<g
   id="g20">
</g>
<g
   id="g22">
</g>
<g
   id="g24">
</g>
<g
   id="g26">
</g>
<g
   id="g28">
</g>
<g
   id="g30">
</g>
<g
   id="g32">
</g>
<g
   id="g34">
</g>
<g
   id="g36">
</g>
<g
   id="g38">
</g>
</svg>