<?xml version="1.0" encoding="UTF-8" standalone="no"?>
<!-- Generator: Adobe Illustrator 19.0.0, SVG Export Plug-In . SVG Version: 6.00 Build 0)  -->

<svg
   xmlns:dc="http://purl.org/dc/elements/1.1/"
   xmlns:cc="http://creativecommons.org/ns#"
   xmlns:rdf="http://www.w3.org/1999/02/22-rdf-syntax-ns#"
   xmlns:svg="http://www.w3.org/2000/svg"
   xmlns="http://www.w3.org/2000/svg"
   xmlns:sodipodi="http://sodipodi.sourceforge.net/DTD/sodipodi-0.dtd"
   xmlns:inkscape="http://www.inkscape.org/namespaces/inkscape"
   version="1.1"
   id="Layer_1"
   x="0px"
   y="0px"
   viewBox="0 0 299.998 299.998"
   style="enable-background:new 0 0 299.998 299.998;"
   xml:space="preserve"
   sodipodi:docname="import.svg"
   inkscape:version="0.92.3 (2405546, 2018-03-11)"><metadata
   id="metadata43"><rdf:RDF><cc:Work
       rdf:about=""><dc:format>image/svg+xml</dc:format><dc:type
         rdf:resource="http://purl.org/dc/dcmitype/StillImage" /></cc:Work></rdf:RDF></metadata><defs
   id="defs41" /><sodipodi:namedview
   pagecolor="#ffffff"
   bordercolor="#666666"
   borderopacity="1"
   objecttolerance="10"
   gridtolerance="10"
   guidetolerance="10"
   inkscape:pageopacity="0"
   inkscape:pageshadow="2"
   inkscape:window-width="1920"
   inkscape:window-height="1028"
   id="namedview39"
   showgrid="false"
   inkscape:zoom="0.78667195"
   inkscape:cx="-8.2626564"
   inkscape:cy="149.99899"
   inkscape:window-x="-8"
   inkscape:window-y="-8"
   inkscape:window-maximized="1"
   inkscape:current-layer="Layer_1" />
<g
   id="g6">
	<g
   id="g4">
		<path
   d="m 110.967,105.357 c 2.075,-2.075 4.793,-3.112 7.511,-3.112 2.718,0 5.434,1.037 7.508,3.112 l 13.297,13.295 v -3.911 -52.264 c 0,-5.867 4.754,-10.621 10.621,-10.621 5.867,0 10.621,4.754 10.621,10.621 v 52.263 4.63 l 4.63,-4.63 9.386,-9.384 c 2.075,-2.075 4.79,-3.112 7.508,-3.112 2.718,0 5.436,1.037 7.511,3.112 2.552,2.549 3.522,6.079 2.933,9.384 0,0.003 -0.003,0.005 -0.003,0.008 -0.044,0.239 -0.119,0.469 -0.179,0.703 -0.091,0.366 -0.189,0.729 -0.322,1.084 -0.088,0.239 -0.189,0.472 -0.296,0.705 -0.166,0.371 -0.358,0.726 -0.568,1.079 -0.112,0.187 -0.215,0.373 -0.34,0.552 -0.363,0.524 -0.76,1.032 -1.227,1.499 l -15.115,15.115 -16.591,16.591 c -2.077,2.075 -4.793,3.105 -7.508,3.105 h -0.078 -0.078 c -2.715,0 -5.431,-1.03 -7.508,-3.105 L 126.089,135.485 110.974,120.37 c -0.467,-0.467 -0.864,-0.973 -1.222,-1.496 -0.127,-0.184 -0.231,-0.373 -0.345,-0.56 -0.207,-0.35 -0.397,-0.703 -0.563,-1.069 -0.109,-0.239 -0.213,-0.475 -0.301,-0.718 -0.127,-0.348 -0.223,-0.7 -0.314,-1.056 -0.062,-0.246 -0.143,-0.485 -0.187,-0.734 -0.598,-3.301 0.37,-6.831 2.925,-9.38 z m 120.607,103.958 h -0.003 c 0,14.337 -14.057,25.568 -32.005,25.568 h -99.132 c -17.945,0 -32.005,-11.23 -32.005,-25.568 V 140.31 c 0,-12.117 10.058,-21.988 24.004,-24.761 0.604,5.981 3.224,11.526 7.534,15.834 l 4.108,4.108 h -3.641 c -7.265,0 -11.256,3.621 -11.256,4.819 v 69.005 c 0,1.201 3.992,4.819 11.256,4.819 h 99.135 c 7.265,0 11.256,-3.621 11.256,-4.819 V 140.31 c 0,-1.198 -3.992,-4.819 -11.256,-4.819 h -3.12 l 4.111,-4.111 c 4.282,-4.279 6.894,-9.786 7.516,-15.727 13.681,2.913 23.498,12.69 23.498,24.66 z"
   id="path2"
   inkscape:connector-curvature="0"
   sodipodi:nodetypes="cscccsssccccsccccccccsccscsccscccccccccsssscccsssssssscccsc" />
	</g>
</g>
<g
   id="g8">
</g>
<g
   id="g10">
</g>
<g
   id="g12">
</g>
<g
   id="g14">
</g>
<g
   id="g16">
</g>
<g
   id="g18">
</g>
<g
   id="g20">
</g>
<g
   id="g22">
</g>
<g
   id="g24">
</g>
<g
   id="g26">
</g>
<g
   id="g28">
</g>
<g
   id="g30">
</g>
<g
   id="g32">
</g>
<g
   id="g34">
</g>
<g
   id="g36">
</g>
</svg>