<?xml version="1.0" encoding="UTF-8" standalone="no"?>
<!-- Generator: Adobe Illustrator 19.0.0, SVG Export Plug-In . SVG Version: 6.00 Build 0)  -->

<svg
   xmlns:dc="http://purl.org/dc/elements/1.1/"
   xmlns:cc="http://creativecommons.org/ns#"
   xmlns:rdf="http://www.w3.org/1999/02/22-rdf-syntax-ns#"
   xmlns:svg="http://www.w3.org/2000/svg"
   xmlns="http://www.w3.org/2000/svg"
   xmlns:sodipodi="http://sodipodi.sourceforge.net/DTD/sodipodi-0.dtd"
   xmlns:inkscape="http://www.inkscape.org/namespaces/inkscape"
   version="1.1"
   id="Layer_1"
   x="0px"
   y="0px"
   viewBox="0 0 300 300"
   style="enable-background:new 0 0 300 300;"
   xml:space="preserve"
   sodipodi:docname="loop_borders.svg"
   inkscape:version="0.92.3 (2405546, 2018-03-11)"><metadata
   id="metadata43"><rdf:RDF><cc:Work
       rdf:about=""><dc:format>image/svg+xml</dc:format><dc:type
         rdf:resource="http://purl.org/dc/dcmitype/StillImage" /><dc:title></dc:title></cc:Work></rdf:RDF></metadata><defs
   id="defs41" /><sodipodi:namedview
   pagecolor="#ffffff"
   bordercolor="#666666"
   borderopacity="1"
   objecttolerance="10"
   gridtolerance="10"
   guidetolerance="10"
   inkscape:pageopacity="0"
   inkscape:pageshadow="2"
   inkscape:window-width="1920"
   inkscape:window-height="1028"
   id="namedview39"
   showgrid="false"
   inkscape:zoom="2.2250293"
   inkscape:cx="113.77027"
   inkscape:cy="134.02646"
   inkscape:window-x="-8"
   inkscape:window-y="-8"
   inkscape:window-maximized="1"
   inkscape:current-layer="Layer_1" />
<g
   id="g6">
	<g
   id="g4">
		<path
   d="m 70.75,90.24023 c -1.4415,0 -2.882328,0.37269 -4.173828,1.11719 -2.584,1.488 -4.169922,4.25152 -4.169922,7.22852 0,55.34029 0.31608,53.40689 0,102.60351 0,2.98 1.588875,5.73757 4.171875,7.22657 1.292,0.744 2.731875,1.12304 4.171875,1.12304 1.44,0 2.880922,-0.37904 4.169922,-1.12304 l 59.533198,-51.30079 c 2.583,-1.488 4.17488,-4.24851 4.17188,-7.22851 0.01,-2.978 -1.58497,-5.74056 -4.16797,-7.22656 L 74.925781,91.35742 C 73.634281,90.61292 72.1915,90.24023 70.75,90.24023 Z m 160.26758,0.11329 c -1.44,0 -2.88288,0.37904 -4.17188,1.12304 l -59.53125,51.30078 c -2.583,1.488 -4.17682,4.24852 -4.17383,7.22852 -0.01,2.978 1.58497,5.73861 4.16797,7.22461 l 59.53321,51.30469 c 2.583,1.489 5.76465,1.489 8.34765,0 2.584,-1.488 4.17188,-4.25152 4.17188,-7.22852 0,-55.34029 -0.31608,-53.40689 0,-102.60352 0,-2.98 -1.59083,-5.73756 -4.17383,-7.22656 -1.292,-0.744 -2.72992,-1.12304 -4.16992,-1.12304 z"
   id="path2"
   inkscape:connector-curvature="0"
   sodipodi:nodetypes="scsccscccccssccccccsccs" />
	</g>
</g>
<g
   id="g8">
</g>
<g
   id="g10">
</g>
<g
   id="g12">
</g>
<g
   id="g14">
</g>
<g
   id="g16">
</g>
<g
   id="g18">
</g>
<g
   id="g20">
</g>
<g
   id="g22">
</g>
<g
   id="g24">
</g>
<g
   id="g26">
</g>
<g
   id="g28">
</g>
<g
   id="g30">
</g>
<g
   id="g32">
</g>
<g
   id="g34">
</g>
<g
   id="g36">
</g>
</svg>