<?xml version="1.0" encoding="UTF-8" standalone="no"?>
<!-- Generator: Adobe Illustrator 19.0.0, SVG Export Plug-In . SVG Version: 6.00 Build 0)  -->

<svg
   xmlns:dc="http://purl.org/dc/elements/1.1/"
   xmlns:cc="http://creativecommons.org/ns#"
   xmlns:rdf="http://www.w3.org/1999/02/22-rdf-syntax-ns#"
   xmlns:svg="http://www.w3.org/2000/svg"
   xmlns="http://www.w3.org/2000/svg"
   xmlns:sodipodi="http://sodipodi.sourceforge.net/DTD/sodipodi-0.dtd"
   xmlns:inkscape="http://www.inkscape.org/namespaces/inkscape"
   version="1.1"
   id="Capa_1"
   x="0px"
   y="0px"
   viewBox="0 0 60 60"
   style="enable-background:new 0 0 60 60;"
   xml:space="preserve"
   sodipodi:docname="mark.svg"
   inkscape:version="0.92.3 (2405546, 2018-03-11)"><metadata
   id="metadata49"><rdf:RDF><cc:Work
       rdf:about=""><dc:format>image/svg+xml</dc:format><dc:type
         rdf:resource="http://purl.org/dc/dcmitype/StillImage" /></cc:Work></rdf:RDF></metadata><defs
   id="defs47" /><sodipodi:namedview
   pagecolor="#ffffff"
   bordercolor="#666666"
   borderopacity="1"
   objecttolerance="10"
   gridtolerance="10"
   guidetolerance="10"
   inkscape:pageopacity="0"
   inkscape:pageshadow="2"
   inkscape:window-width="1920"
   inkscape:window-height="1028"
   id="namedview45"
   showgrid="false"
   inkscape:zoom="1.9666667"
   inkscape:cx="-138.45534"
   inkscape:cy="27.657972"
   inkscape:window-x="-8"
   inkscape:window-y="-8"
   inkscape:window-maximized="1"
   inkscape:current-layer="Capa_1" />
<g
   id="g12">
	<path
   d="m 60,-45 c -3.77875,0 -7.557654,0.487345 -8.535155,1.464845 l -70.000005,70 c -1.955,1.955 -1.955,5.11531 0,7.07031 L 51.464845,103.53516 C 52.439845,104.51015 53.72,105 55,105 c 1.280001,0 12.560156,-0.48985 13.535156,-1.46484 1.955,-1.955 1.955,-5.115315 0,-7.070315 L 2.070313,30 68.535156,-36.464845 c 1.955,-1.955 1.955,-5.11531 0,-7.07031 C 67.557656,-44.512655 63.778751,-45 60,-45 Z m 140,0 c -3.77875,0 -7.55765,0.487345 -8.53515,1.464845 -1.955,1.955 -2.08668,5.256525 0,7.07031 L 257.92969,30 191.46485,96.464845 c -1.955,1.955 -1.955,5.115315 0,7.070315 C 192.43985,104.51015 203.72,105 205,105 c 1.28,0 2.56016,-0.48985 3.53516,-1.46484 l 70,-70.000005 c 1.955,-1.955 1.955,-5.11531 0,-7.07031 l -70,-70 C 207.55766,-44.512655 203.77875,-45 200,-45 Z M 70,10 C 58.97,10 50,18.97 50,30 50,41.03 58.97,50 70,50 81.030001,50 90,41.03 90,30 90,18.97 81.030001,10 70,10 Z m 60,0 c -11.03,0 -20,8.97 -20,20 0,11.03 8.97,20 20,20 11.03,0 20,-8.97 20,-20 0,-11.03 -8.97,-20 -20,-20 z m 60,0 c -11.03,0 -20,8.97 -20,20 0,11.03 8.97,20 20,20 11.03,0 20,-8.97 20,-20 0,-11.03 -8.97,-20 -20,-20 z"
   id="path2"
   inkscape:connector-curvature="0"
   style="stroke-width:5" />
	
	
	
	
</g>
<g
   id="g14">
</g>
<g
   id="g16">
</g>
<g
   id="g18">
</g>
<g
   id="g20">
</g>
<g
   id="g22">
</g>
<g
   id="g24">
</g>
<g
   id="g26">
</g>
<g
   id="g28">
</g>
<g
   id="g30">
</g>
<g
   id="g32">
</g>
<g
   id="g34">
</g>
<g
   id="g36">
</g>
<g
   id="g38">
</g>
<g
   id="g40">
</g>
<g
   id="g42">
</g>
</svg>