<?xml version="1.0" encoding="UTF-8" standalone="no"?>
<!-- Generator: Adobe Illustrator 19.0.0, SVG Export Plug-In . SVG Version: 6.00 Build 0)  -->

<svg
   xmlns:dc="http://purl.org/dc/elements/1.1/"
   xmlns:cc="http://creativecommons.org/ns#"
   xmlns:rdf="http://www.w3.org/1999/02/22-rdf-syntax-ns#"
   xmlns:svg="http://www.w3.org/2000/svg"
   xmlns="http://www.w3.org/2000/svg"
   xmlns:sodipodi="http://sodipodi.sourceforge.net/DTD/sodipodi-0.dtd"
   xmlns:inkscape="http://www.inkscape.org/namespaces/inkscape"
   version="1.1"
   id="Layer_1"
   x="0px"
   y="0px"
   viewBox="0 0 300 300"
   style="enable-background:new 0 0 300 300;"
   xml:space="preserve"
   sodipodi:docname="midi.svg"
   inkscape:version="0.92.3 (2405546, 2018-03-11)"><metadata
   id="metadata43"><rdf:RDF><cc:Work
       rdf:about=""><dc:format>image/svg+xml</dc:format><dc:type
         rdf:resource="http://purl.org/dc/dcmitype/StillImage" /><dc:title /></cc:Work></rdf:RDF></metadata><defs
   id="defs41" /><sodipodi:namedview
   pagecolor="#ffffff"
   bordercolor="#666666"
   borderopacity="1"
   objecttolerance="10"
   gridtolerance="10"
   guidetolerance="10"
   inkscape:pageopacity="0"
   inkscape:pageshadow="2"
   inkscape:window-width="1920"
   inkscape:window-height="1058"
   id="namedview39"
   showgrid="false"
   inkscape:zoom="1.5733333"
   inkscape:cx="-88.076714"
   inkscape:cy="86.320668"
   inkscape:window-x="1912"
   inkscape:window-y="-8"
   inkscape:window-maximized="1"
   inkscape:current-layer="Layer_1" />

<g
   id="g8">
</g>
<g
   id="g10">
</g>
<g
   id="g12">
</g>
<g
   id="g14">
</g>
<g
   id="g16">
</g>
<g
   id="g18">
</g>
<g
   id="g20">
</g>
<g
   id="g22">
</g>
<g
   id="g24">
</g>
<g
   id="g26">
</g>
<g
   id="g28">
</g>
<g
   id="g30">
</g>
<g
   id="g32">
</g>
<g
   id="g34">
</g>
<g
   id="g36">
</g>
<g
   id="g911"
   transform="translate(0,0)"><path
     style="fill:#a066aa;stroke-width:0.59048998"
     d="m 59.630395,115.46728 c 2.70604,0 4.29268,1.5987 5.87899,3.37162 l 20.51594,27.69062 21.263435,-28.72858 c 3.0793,-3.81412 10.62603,-2.33248 10.62603,4.11771 v 52.49939 c 0,4.1174 -2.60112,6.43855 -5.5871,6.43855 -3.35923,0 -5.97154,-2.32115 -5.97154,-6.43855 v -34.50221 l -15.478425,19.58334 c -3.35923,4.11739 -7.54646,4.11739 -10.63742,0 l -13.8923,-19.58334 v 34.50221 c 0,4.1174 -3.35838,6.43855 -6.71761,6.43855 -2.98599,0 -5.5871,-2.32115 -5.5871,-6.43855 v -52.49939 c 0,-4.85222 4.10577,-6.45137 5.5871,-6.45137 z m 81.030055,0.60655 c 3.0793,-0.035 6.15805,1.87906 6.15805,5.84482 v 53.23408 c 0,7.7449 -12.31753,7.93152 -12.31753,0 v -53.23408 c 0,-3.82579 3.08019,-5.80981 6.15948,-5.84482 z m 101.5702,0 c 3.0793,-0.035 6.15806,1.87906 6.15806,5.84482 v 53.23408 c 0,7.7449 -12.31754,7.93152 -12.31754,0 v -53.23408 c 0,-3.82579 3.08018,-5.80981 6.15948,-5.84482 z m -72.49278,0.2449 h 21.35742 c 42.62025,0 41.68739,64.53786 0.84006,64.53786 h -22.19748 c -3.0793,0 -6.43855,-1.69238 -6.43855,-5.78644 v -52.96498 c 0,-3.35924 3.35925,-5.78644 6.43855,-5.78644 z m 5.86759,11.37355 v 41.77938 h 15.47844 c 25.18258,0 26.30232,-41.77938 0,-41.77938 z"
     id="path835"
     inkscape:connector-curvature="0"
     sodipodi:nodetypes="scccssssccccssssscssssccsssscsssssssscsss" /><g
     id="g845">
	
	
	
	
</g><g
     id="g849">
</g><g
     id="g851">
</g><g
     id="g853">
</g><g
     id="g855">
</g><g
     id="g857">
</g><g
     id="g859">
</g><g
     id="g861">
</g><g
     id="g863">
</g><g
     id="g865">
</g><g
     id="g867">
</g><g
     id="g869">
</g><g
     id="g871">
</g><g
     id="g873">
</g><g
     id="g875">
</g><g
     id="g877">
</g></g></svg>