<?xml version="1.0" encoding="iso-8859-1"?>
<!-- Generator: Adobe Illustrator 19.0.0, SVG Export Plug-In . SVG Version: 6.00 Build 0)  -->
<svg version="1.1" id="Layer_1" xmlns="http://www.w3.org/2000/svg" xmlns:xlink="http://www.w3.org/1999/xlink" x="0px" y="0px"
	 viewBox="0 0 512 512" style="enable-background:new 0 0 512 512;" xml:space="preserve">
<g>
	<g>
		<path d="M256,0C114.623,0,0,114.614,0,256c0,141.377,114.623,256,256,256c141.386,0,256-114.623,256-256
			C512,114.614,397.386,0,256,0z M345.693,139.624c-2.319-3.909-2.35-8.264-0.097-10.685l26.302-21.358l0.341-0.305
			c2.837-2.833,6.432-4.462,9.867-4.462c1.602,0,3.886,0.372,5.661,2.151l17.042,17.046c1.642,1.638,2.381,4.059,2.094,6.821
			c-0.328,3.112-1.89,6.201-4.395,8.711l-21.668,26.647c-1.478,1.385-3.351,1.678-4.679,1.678c-1.939,0-4.077-0.633-6.007-1.779
			l-3.006-1.788l-55.649,56.831l-22.376-19.361l58.354-57.146L345.693,139.624z M249.768,328.868l-74.595,74.595
			c-15.559,15.559-40.781,15.559-56.34,0l-12.514-12.514c-15.559-15.559-15.559-40.781,0-56.34l73.497-73.497
			c5.011-0.416,10.026-1.067,14.979-2.023l57.725,66.698C251.658,326.846,250.755,327.881,249.768,328.868z M399.196,387.909
			c-7.808,7.804-20.331,12.111-31.893,12.111c-8.676,0-16.812-2.426-22.013-7.627L204.1,229.251
			c-10.716,3.603-23.035,5.794-35.354,5.794c-18.919,0-37.833-5.161-50.94-18.272c-21.831-21.822-31.941-49.435-22.478-76.764
			l43.193,36.138l43.888-5.011l2.66-41.538l-36.129-43.185c7.711-2.674,15.634-3.975,23.522-3.975
			c20.065,0,39.922,8.415,55.592,24.084c21.65,21.654,21.623,59.115,12.465,86.312l38.851,33.619l13.51,11.69l110.79,95.873
			C415.8,346.154,412.834,374.271,399.196,387.909z"/>
	</g>
</g>
<g>
</g>
<g>
</g>
<g>
</g>
<g>
</g>
<g>
</g>
<g>
</g>
<g>
</g>
<g>
</g>
<g>
</g>
<g>
</g>
<g>
</g>
<g>
</g>
<g>
</g>
<g>
</g>
<g>
</g>
</svg>
