<?xml version="1.0" encoding="UTF-8" standalone="no"?>
<!-- Generator: Adobe Illustrator 19.0.0, SVG Export Plug-In . SVG Version: 6.00 Build 0)  -->

<svg
   xmlns:dc="http://purl.org/dc/elements/1.1/"
   xmlns:cc="http://creativecommons.org/ns#"
   xmlns:rdf="http://www.w3.org/1999/02/22-rdf-syntax-ns#"
   xmlns:svg="http://www.w3.org/2000/svg"
   xmlns="http://www.w3.org/2000/svg"
   xmlns:sodipodi="http://sodipodi.sourceforge.net/DTD/sodipodi-0.dtd"
   xmlns:inkscape="http://www.inkscape.org/namespaces/inkscape"
   version="1.1"
   id="Layer_1"
   x="0px"
   y="0px"
   viewBox="0 0 300 300"
   style="enable-background:new 0 0 300 300;"
   xml:space="preserve"
   sodipodi:docname="scroll.svg"
   inkscape:version="0.92.3 (2405546, 2018-03-11)"><metadata
   id="metadata43"><rdf:RDF><cc:Work
       rdf:about=""><dc:format>image/svg+xml</dc:format><dc:type
         rdf:resource="http://purl.org/dc/dcmitype/StillImage" /></cc:Work></rdf:RDF></metadata><defs
   id="defs41" /><sodipodi:namedview
   pagecolor="#ffffff"
   bordercolor="#666666"
   borderopacity="1"
   objecttolerance="10"
   gridtolerance="10"
   guidetolerance="10"
   inkscape:pageopacity="0"
   inkscape:pageshadow="2"
   inkscape:window-width="1920"
   inkscape:window-height="1028"
   id="namedview39"
   showgrid="false"
   showguides="true"
   inkscape:guide-bbox="true"
   inkscape:zoom="0.55625736"
   inkscape:cx="-354.91043"
   inkscape:cy="8.5980804"
   inkscape:window-x="-8"
   inkscape:window-y="-8"
   inkscape:window-maximized="1"
   inkscape:current-layer="Layer_1"><sodipodi:guide
     position="148.09322,199.73517"
     orientation="0,1"
     id="guide865"
     inkscape:locked="false" /></sodipodi:namedview>
<g
   id="g6">
	<g
   id="g4">
		<path
   style="stroke-width:0.89999998"
   d="m 84.09375,90.23633 c -1.296003,0 -2.593806,0.34016 -3.753906,1.00976 l -42.779297,52.17188 c -2.3247,1.3392 -3.758559,3.82386 -3.755859,6.50586 -0.009,2.6802 1.4253,5.16455 3.75,6.50195 l 42.779296,52.17383 c 2.3247,1.3401 5.188976,1.3401 7.513676,0 2.3256,-1.3392 3.75394,-3.82656 3.7539,-6.50586 v -29.87403 h 25.75391 V 127.58301 H 92.27539 L 91.60156,97.75 c 4e-5,-2.682 -1.4292,-5.16381 -3.7539,-6.50391 -1.1628,-0.6696 -2.45791,-1.00976 -3.75391,-1.00976 z m 125.76953,0.082 c -1.29735,0 -2.59546,0.33581 -3.75781,1.00586 -2.3256,1.3392 -3.56117,3.82498 -3.60547,6.5039 l -0.22461,29.75489 h -25.20117 v 44.63671 h 25.26172 l 0.0156,29.95411 c 0.0463,2.6816 1.43116,5.16185 3.75586,6.50195 1.1628,0.6696 2.45791,1.01172 3.75391,1.01172 1.296,0 2.5938,-0.34212 3.7539,-1.01172 l 42.7793,-52.16992 c 2.3247,-1.3392 3.75886,-3.82386 3.75586,-6.50586 0.009,-2.6802 -1.42725,-5.16651 -3.75195,-6.50391 l -42.7793,-52.17187 c -1.16235,-0.67005 -5.05321,-1.00586 -3.75586,-1.00586 z m -74.51562,37.26465 v 44.63671 h 23.52343 v -44.63671 z"
   id="path2"
   inkscape:connector-curvature="0"
   sodipodi:nodetypes="scccccccccccccscccccccccscccccscccccc" />
	</g>
</g>
<g
   id="g8">
</g>
<g
   id="g10">
</g>
<g
   id="g12">
</g>
<g
   id="g14">
</g>
<g
   id="g16">
</g>
<g
   id="g18">
</g>
<g
   id="g20">
</g>
<g
   id="g22">
</g>
<g
   id="g24">
</g>
<g
   id="g26">
</g>
<g
   id="g28">
</g>
<g
   id="g30">
</g>
<g
   id="g32">
</g>
<g
   id="g34">
</g>
<g
   id="g36">
</g>
</svg>