<?xml version="1.0" encoding="UTF-8" standalone="no"?>
<!-- Generator: Adobe Illustrator 19.0.0, SVG Export Plug-In . SVG Version: 6.00 Build 0)  -->

<svg
   xmlns:dc="http://purl.org/dc/elements/1.1/"
   xmlns:cc="http://creativecommons.org/ns#"
   xmlns:rdf="http://www.w3.org/1999/02/22-rdf-syntax-ns#"
   xmlns:svg="http://www.w3.org/2000/svg"
   xmlns="http://www.w3.org/2000/svg"
   xmlns:sodipodi="http://sodipodi.sourceforge.net/DTD/sodipodi-0.dtd"
   xmlns:inkscape="http://www.inkscape.org/namespaces/inkscape"
   version="1.1"
   id="Layer_1"
   x="0px"
   y="0px"
   viewBox="0 0 300 300"
   style="enable-background:new 0 0 300 300;"
   xml:space="preserve"
   sodipodi:docname="settings.svg"
   inkscape:version="0.92.3 (2405546, 2018-03-11)"><metadata
   id="metadata47"><rdf:RDF><cc:Work
       rdf:about=""><dc:format>image/svg+xml</dc:format><dc:type
         rdf:resource="http://purl.org/dc/dcmitype/StillImage" /></cc:Work></rdf:RDF></metadata><defs
   id="defs45" /><sodipodi:namedview
   pagecolor="#ffffff"
   bordercolor="#666666"
   borderopacity="1"
   objecttolerance="10"
   gridtolerance="10"
   guidetolerance="10"
   inkscape:pageopacity="0"
   inkscape:pageshadow="2"
   inkscape:window-width="1920"
   inkscape:window-height="1058"
   id="namedview43"
   showgrid="false"
   inkscape:zoom="0.78666667"
   inkscape:cx="140.43845"
   inkscape:cy="128.37213"
   inkscape:window-x="1912"
   inkscape:window-y="-8"
   inkscape:window-maximized="1"
   inkscape:current-layer="Layer_1" />
<g
   id="g10">
	<g
   id="g8">
		<g
   id="g6">
			
			<path
   d="m 134.26758 77.240234 L 132.89258 98.548828 C 128.87258 99.741828 125.0262 101.32997 121.4082 103.29297 L 105.37695 89.205078 L 83.132812 111.45312 L 97.220703 127.48438 C 95.260703 131.09938 93.667609 134.94789 92.474609 138.96289 L 71.167969 140.33789 L 71.167969 171.79688 L 92.474609 173.17188 C 93.667609 177.18988 95.257703 181.03434 97.220703 184.65234 L 83.132812 200.68359 L 105.375 222.93359 L 121.4082 208.84375 C 125.0262 210.80475 128.87367 212.39398 132.88867 213.58398 L 134.26367 234.89258 L 165.7207 234.89648 L 167.09766 213.58594 C 171.11566 212.39594 174.96208 210.80475 178.58008 208.84375 L 194.61133 222.93555 L 216.85547 200.69141 L 202.76758 184.65234 C 204.73058 181.03634 206.32067 177.19188 207.51367 173.17188 L 228.82031 171.79883 L 228.82031 140.33789 L 207.51562 138.96289 C 206.32262 134.94789 204.73053 131.10237 202.76953 127.48438 L 216.85742 111.45312 L 194.61328 89.205078 L 178.57812 103.29297 C 174.96013 101.32897 171.1127 99.741828 167.0957 98.548828 L 165.71875 77.240234 L 134.26758 77.240234 z M 149.58203 123.59961 A 29.872881 31.144066 0 0 1 179.45508 154.74414 A 29.872881 31.144066 0 0 1 149.58203 185.88867 A 29.872881 31.144066 0 0 1 119.70898 154.74414 A 29.872881 31.144066 0 0 1 149.58203 123.59961 z "
   id="path4" />
		</g>
	</g>
</g>
<g
   id="g12">
</g>
<g
   id="g14">
</g>
<g
   id="g16">
</g>
<g
   id="g18">
</g>
<g
   id="g20">
</g>
<g
   id="g22">
</g>
<g
   id="g24">
</g>
<g
   id="g26">
</g>
<g
   id="g28">
</g>
<g
   id="g30">
</g>
<g
   id="g32">
</g>
<g
   id="g34">
</g>
<g
   id="g36">
</g>
<g
   id="g38">
</g>
<g
   id="g40">
</g>
</svg>