<?xml version="1.0" encoding="UTF-8" standalone="no"?>
<!-- Generator: Adobe Illustrator 19.0.0, SVG Export Plug-In . SVG Version: 6.00 Build 0)  -->

<svg
   xmlns:dc="http://purl.org/dc/elements/1.1/"
   xmlns:cc="http://creativecommons.org/ns#"
   xmlns:rdf="http://www.w3.org/1999/02/22-rdf-syntax-ns#"
   xmlns:svg="http://www.w3.org/2000/svg"
   xmlns="http://www.w3.org/2000/svg"
   xmlns:sodipodi="http://sodipodi.sourceforge.net/DTD/sodipodi-0.dtd"
   xmlns:inkscape="http://www.inkscape.org/namespaces/inkscape"
   version="1.1"
   id="Layer_1"
   x="0px"
   y="0px"
   viewBox="0 0 300 300"
   style="enable-background:new 0 0 300 300;"
   xml:space="preserve"
   sodipodi:docname="solo.svg"
   inkscape:version="0.92.3 (2405546, 2018-03-11)"><metadata
   id="metadata43"><rdf:RDF><cc:Work
       rdf:about=""><dc:format>image/svg+xml</dc:format><dc:type
         rdf:resource="http://purl.org/dc/dcmitype/StillImage" /><dc:title></dc:title></cc:Work></rdf:RDF></metadata><defs
   id="defs41" /><sodipodi:namedview
   pagecolor="#ffffff"
   bordercolor="#666666"
   borderopacity="1"
   objecttolerance="10"
   gridtolerance="10"
   guidetolerance="10"
   inkscape:pageopacity="0"
   inkscape:pageshadow="2"
   inkscape:window-width="1920"
   inkscape:window-height="1028"
   id="namedview39"
   showgrid="false"
   inkscape:zoom="2.2250293"
   inkscape:cx="43.873356"
   inkscape:cy="107.91044"
   inkscape:window-x="-8"
   inkscape:window-y="-8"
   inkscape:window-maximized="1"
   inkscape:current-layer="layer3" />

<g
   id="g8">
</g>
<g
   id="g10">
</g>
<g
   id="g12">
</g>
<g
   id="g14">
</g>
<g
   id="g16">
</g>
<g
   id="g18">
</g>
<g
   id="g20">
</g>
<g
   id="g22">
</g>
<g
   id="g24">
</g>
<g
   id="g26">
</g>
<g
   id="g28">
</g>
<g
   id="g30">
</g>
<g
   id="g32">
</g>
<g
   id="g34">
</g>
<g
   id="g36">
</g>
<g
   inkscape:groupmode="layer"
   id="layer2"
   inkscape:label="Layer 1"
   style="display:none"><path
     id="text846"
     style="color:#000000;font-style:normal;font-variant:normal;font-weight:normal;font-stretch:normal;font-size:76.59496307px;line-height:1.25;font-family:sans-serif;font-variant-ligatures:normal;font-variant-position:normal;font-variant-caps:normal;font-variant-numeric:normal;font-variant-alternates:normal;font-feature-settings:normal;text-indent:0;text-align:start;text-decoration:none;text-decoration-line:none;text-decoration-style:solid;text-decoration-color:#000000;letter-spacing:0px;word-spacing:0px;text-transform:none;writing-mode:lr-tb;direction:ltr;text-orientation:mixed;dominant-baseline:auto;baseline-shift:baseline;text-anchor:start;white-space:normal;shape-padding:0;clip-rule:nonzero;display:inline;overflow:visible;visibility:visible;opacity:1;isolation:auto;mix-blend-mode:normal;color-interpolation:sRGB;color-interpolation-filters:linearRGB;solid-color:#000000;solid-opacity:1;vector-effect:none;fill:#000000;fill-opacity:1;fill-rule:nonzero;stroke:none;stroke-width:5.84718227;stroke-linecap:butt;stroke-linejoin:miter;stroke-miterlimit:4;stroke-dasharray:none;stroke-dashoffset:0;stroke-opacity:1;color-rendering:auto;image-rendering:auto;shape-rendering:auto;text-rendering:auto;enable-background:accumulate"
     d="m 75.034335,116.09601 c -6.225155,0 -11.486214,1.63418 -15.411898,5.18622 l -0.0037,0.002 -0.0037,0.004 c -3.896534,3.55103 -5.945754,8.75849 -5.945754,14.68365 0,5.10112 1.459973,9.60598 4.444956,12.75864 2.980841,3.14829 7.333283,5.09989 12.971711,6.34741 l 0.0056,0.002 4.35602,0.94501 c 3.365449,0.75341 5.525664,1.9015 6.501605,2.90502 l 0.0074,0.008 0.0074,0.008 c 1.004953,1.01815 1.508209,2.24662 1.508209,4.50268 0,2.54525 -0.623934,3.89381 -2.1882,5.15122 -1.568719,1.26099 -4.11818,2.09796 -7.846765,2.09796 -2.412606,0 -4.885235,-0.41087 -7.442845,-1.25383 -2.566562,-0.84591 -5.228245,-2.11701 -7.982021,-3.83357 l -4.129974,-2.57354 v 15.61425 l 1.817633,0.74118 c 3.145252,1.2833 6.199956,2.26214 9.169689,2.92767 h 0.0019 0.0037 c 2.992354,0.66501 5.845423,1.00677 8.561958,1.00677 7.010879,0 12.686477,-1.52438 16.801525,-5.0524 l 0.0019,-0.002 c 4.138279,-3.52879 6.264446,-9.0211 6.264446,-15.41455 0,-5.39091 -1.538515,-10.15661 -4.64136,-13.60688 -3.086588,-3.48527 -7.579772,-5.64458 -13.260754,-6.84565 l -4.313404,-0.98206 -0.02409,-0.006 c -3.702531,-0.76831 -6.04662,-1.89608 -6.729503,-2.51796 -0.712063,-0.69274 -1.11726,-1.58734 -1.11726,-3.55975 0,-2.32454 0.5547,-3.51038 2.001063,-4.66739 1.477156,-1.16312 3.892169,-1.94766 7.429876,-1.94766 1.984285,0 4.072566,0.31241 6.279265,0.96148 2.211514,0.65049 4.621565,1.65544 7.213093,3.03268 l 3.968777,2.11031 v -14.87719 l -1.895452,-0.70207 c -2.816459,-1.0432 -5.588496,-1.83158 -8.31368,-2.35943 -2.726596,-0.52812 -5.416397,-0.79471 -8.067251,-0.79471 z m 51.373605,0 c -8.06996,0 -14.9663,3.16353 -19.94764,9.34302 -4.96334,6.16056 -7.377998,14.44259 -7.377998,24.29227 0,9.84968 2.414658,18.12964 7.377998,24.29021 l 0.002,0.002 0.002,0.004 c 4.98295,6.15218 11.87692,9.29978 19.94394,9.29978 8.04533,0 14.91865,-3.15129 19.87723,-9.30596 l 0.002,-0.002 0.002,-0.004 c 4.95781,-6.18302 7.37244,-14.4591 7.37244,-24.28404 0,-9.84671 -2.41212,-18.1261 -7.37244,-24.28609 -4.95695,-6.18196 -11.83266,-9.3492 -19.88094,-9.3492 z m 95.08574,0 c -8.06995,0 -14.96631,3.16353 -19.94764,9.34302 h -0.002 c -4.96333,6.16056 -7.37614,14.44259 -7.37614,24.29227 0,9.84968 2.41281,18.12964 7.37614,24.29021 l 0.004,0.002 0.002,0.004 c 4.98295,6.15218 11.87692,9.29978 19.94394,9.29978 8.04533,0 14.9168,-3.15129 19.87538,-9.30596 l 0.004,-0.002 0.002,-0.004 c 4.9578,-6.18302 7.37244,-14.4591 7.37244,-24.28404 0,-9.84624 -2.41262,-18.12619 -7.37244,-24.28609 l -0.004,-0.004 c -4.9567,-6.17904 -11.83089,-9.34508 -19.87724,-9.34508 z m -62.16639,1.06442 v 3.08003 61.94229 h 38.50752 v -12.86569 h -25.7952 v -52.15663 z m -32.91935,11.56451 c 4.5145,0 7.60756,1.64359 10.16096,5.27887 l 0.002,0.004 0.004,0.006 c 2.57197,3.63333 3.9836,8.74743 3.9836,15.7172 0,6.94183 -1.40994,12.04236 -3.9836,15.67808 l -0.004,0.004 -0.002,0.004 c -2.5534,3.63529 -5.64646,5.28093 -10.16096,5.28093 -4.51449,0 -7.64255,-1.65228 -10.24433,-5.29946 -2.56952,-3.63512 -3.97619,-8.7318 -3.97619,-15.66778 0,-6.96474 1.40775,-12.07612 3.97619,-15.70897 l 0.002,-0.002 c 0.001,-0.002 0.002,-0.004 0.004,-0.006 2.60057,-3.64126 5.72778,-5.28916 10.23877,-5.28916 z m 95.08574,0 c 4.51449,0 7.6057,1.64359 10.15911,5.27887 l 0.004,0.004 0.004,0.006 c 2.57196,3.63333 3.9836,8.74743 3.9836,15.7172 0,6.94183 -1.40995,12.04236 -3.9836,15.67808 l -0.004,0.004 -0.004,0.004 c -2.55341,3.63529 -5.64462,5.28093 -10.15911,5.28093 -4.51,0 -7.63854,-1.64958 -10.23878,-5.28916 l -0.004,-0.004 c -2.5717,-3.63544 -3.9799,-8.73491 -3.9799,-15.67396 0,-6.96977 1.41163,-12.08387 3.9836,-15.7172 2.60042,-3.64042 5.72828,-5.28916 10.23878,-5.28916 z"
     inkscape:connector-curvature="0" /></g><g
   inkscape:groupmode="layer"
   id="layer3"
   inkscape:label="Layer 2"
   style="display:inline"><g
     id="g911"><g
       id="g845" /><g
       id="g849" /><g
       id="g851" /><g
       id="g853" /><g
       id="g855" /><g
       id="g857" /><g
       id="g859" /><g
       id="g861" /><g
       id="g863" /><g
       id="g865" /><g
       id="g867" /><g
       id="g869" /><g
       id="g871" /><g
       id="g873" /><g
       id="g875" /><g
       id="g877" /></g></g></svg>