<?xml version="1.0" encoding="UTF-8" standalone="no"?>
<svg
   xmlns:dc="http://purl.org/dc/elements/1.1/"
   xmlns:cc="http://creativecommons.org/ns#"
   xmlns:rdf="http://www.w3.org/1999/02/22-rdf-syntax-ns#"
   xmlns:svg="http://www.w3.org/2000/svg"
   xmlns="http://www.w3.org/2000/svg"
   xmlns:sodipodi="http://sodipodi.sourceforge.net/DTD/sodipodi-0.dtd"
   xmlns:inkscape="http://www.inkscape.org/namespaces/inkscape"
   style="position:relative; "
   viewBox="0 0 2000 1650"
   height="60%"
   width="60%"
   id="svg2"
   version="1.1"
   inkscape:version="0.92.3 (2405546, 2018-03-11)"
   sodipodi:docname="sprechduette logo.svg">
  <metadata
     id="metadata28">
    <rdf:RDF>
      <cc:Work
         rdf:about="">
        <dc:format>image/svg+xml</dc:format>
        <dc:type
           rdf:resource="http://purl.org/dc/dcmitype/StillImage" />
      </cc:Work>
    </rdf:RDF>
  </metadata>
  <defs
     id="defs26" />
  <sodipodi:namedview
     pagecolor="#ffffff"
     bordercolor="#666666"
     borderopacity="1"
     objecttolerance="10"
     gridtolerance="10"
     guidetolerance="10"
     inkscape:pageopacity="0"
     inkscape:pageshadow="2"
     inkscape:window-width="1920"
     inkscape:window-height="1028"
     id="namedview24"
     showgrid="false"
     inkscape:zoom="1"
     inkscape:cx="0"
     inkscape:cy="0"
     inkscape:window-x="-8"
     inkscape:window-y="-8"
     inkscape:window-maximized="1"
     inkscape:current-layer="svg2" />
  <g
     class="svg_schwarz"
     id="g4">
    <path
       style="fill:#000000;fill-opacity:1;stroke-width:0.60000002"
       d="M 295.80078 0 L 325.19922 810 L 384 810 L 413.40039 0 L 295.80078 0 z M 60 60 L 60 270 L 270 270 L 270 60 L 60 60 z M 1050 60 L 1050 270 L 1200 270 L 1200 60 L 1050 60 z M 503.40039 145.19922 L 503.40039 300 L 645.59961 300 L 645.59961 145.19922 L 503.40039 145.19922 z M 806.40039 945 L 806.40039 990 L 1120.8008 990 L 1120.8008 945 L 806.40039 945 z "
       
       id="path6" />
    <path
       style="fill:#ff5e00;fill-opacity:1;stroke-width:0.60000002"
       d="M 885 0 L 914.40039 810 L 973.19922 810 L 1002.5996 0 L 885 0 z M 628.80078 37.199219 L 628.80078 114 L 786.59961 114 L 786.59961 37.199219 L 628.80078 37.199219 z M 217.19922 945 L 217.19922 990 L 531.59961 990 L 531.59961 945 L 217.19922 945 z "
       
       id="path14" />
  </g>
  <g
     class="svg_rot"
     id="g16"
     inkscape:export-xdpi="150"
     inkscape:export-ydpi="150" />
</svg>
